{
  "accessors": [
    {
      "bufferView": 2,
      "componentType": 5126,
      "count": 28,
      "max": [
        2.2630674839019775,
        3.062060832977295,
        0.2913641035556793
      ],
      "min": [
        -2.264991283416748,
        -3.062060832977295,
        -0.2126474380493164
      ],
      "type": "VEC3"
    },
    {
      "bufferView": 2,
      "byteOffset": 336,
      "componentType": 5126,
      "count": 28,
      "max": [
        0.9997015595436096,
        1.0,
        0.9997014999389648
      ],
      "min": [
        -0.9997015595436096,
        -1.0,
        -0.02443164959549904
      ],
      "type": "VEC3"
    },
    {
      "bufferView": 1,
      "componentType": 5126,
      "count": 28,
      "max": [
        0.8374674916267395,
        0.8357889652252197
      ],
      "min": [
        0.600615382194519,
        0.3809223771095276
      ],
      "type": "VEC2"
    },
    {
      "bufferView": 0,
      "componentType": 5125,
      "count": 30,
      "type": "SCALAR"
    },
    {
      "bufferView": 2,
      "byteOffset": 672,
      "componentType": 5126,
      "count": 104,
      "max": [
        0.8457222580909729,
        14.827086448669434,
        8.782137870788574
      ],
      "min": [
        -1.0683478116989136,
        -15.434409141540527,
        -7.0264716148376465
      ],
      "type": "VEC3"
    },
    {
      "bufferView": 2,
      "byteOffset": 1920,
      "componentType": 5126,
      "count": 104,
      "max": [
        1.0,
        1.0,
        1.0
      ],
      "min": [
        -1.0,
        -1.0,
        -1.0
      ],
      "type": "VEC3"
    },
    {
      "bufferView": 1,
      "byteOffset": 224,
      "componentType": 5126,
      "count": 104,
      "max": [
        0.8757085800170898,
        0.999569296836853
      ],
      "min": [
        0.00043068951345048845,
        0.00043068951345048845
      ],
      "type": "VEC2"
    },
    {
      "bufferView": 0,
      "byteOffset": 120,
      "componentType": 5125,
      "count": 234,
      "type": "SCALAR"
    },
    {
      "bufferView": 2,
      "byteOffset": 3168,
      "componentType": 5126,
      "count": 28,
      "max": [
        0.41697242856025696,
        0.8042186498641968,
        2.02002215385437
      ],
      "min": [
        -0.48305296897888184,
        -0.2889610230922699,
        -2.02002215385437
      ],
      "type": "VEC3"
    },
    {
      "bufferView": 2,
      "byteOffset": 3504,
      "componentType": 5126,
      "count": 28,
      "max": [
        0.5437893271446228,
        0.9872913956642151,
        1.0
      ],
      "min": [
        -0.9496538639068604,
        -0.31330105662345886,
        -1.0
      ],
      "type": "VEC3"
    },
    {
      "bufferView": 1,
      "byteOffset": 1056,
      "componentType": 5126,
      "count": 28,
      "max": [
        0.684055507183075,
        0.6998464465141296
      ],
      "min": [
        0.6060887575149536,
        0.6337792873382568
      ],
      "type": "VEC2"
    },
    {
      "bufferView": 0,
      "byteOffset": 1056,
      "componentType": 5125,
      "count": 30,
      "type": "SCALAR"
    },
    {
      "bufferView": 2,
      "byteOffset": 3840,
      "componentType": 5126,
      "count": 4,
      "max": [
        0.0,
        14.837676048278809,
        7.611227989196777
      ],
      "min": [
        0.0,
        -14.837676048278809,
        -7.611227989196777
      ],
      "type": "VEC3"
    },
    {
      "bufferView": 2,
      "byteOffset": 3888,
      "componentType": 5126,
      "count": 4,
      "max": [
        1.0,
        0.0,
        0.0
      ],
      "min": [
        1.0,
        0.0,
        0.0
      ],
      "type": "VEC3"
    },
    {
      "bufferView": 1,
      "byteOffset": 1280,
      "componentType": 5126,
      "count": 4,
      "max": [
        0.557397186756134,
        0.48656725883483887
      ],
      "min": [
        0.3080254793167114,
        0.00043068951345048845
      ],
      "type": "VEC2"
    },
    {
      "bufferView": 0,
      "byteOffset": 1176,
      "componentType": 5125,
      "count": 6,
      "type": "SCALAR"
    },
    {
      "bufferView": 2,
      "byteOffset": 3936,
      "componentType": 5126,
      "count": 122,
      "max": [
        5.470612525939941,
        7.6910295486450195,
        0.2518444061279297
      ],
      "min": [
        -3.7323379516601563,
        -6.5336527824401855,
        -0.5441160202026367
      ],
      "type": "VEC3"
    },
    {
      "bufferView": 2,
      "byteOffset": 5400,
      "componentType": 5126,
      "count": 122,
      "max": [
        0.9997014999389648,
        1.0,
        0.9997015595436096
      ],
      "min": [
        -0.9997015595436096,
        -1.0,
        -0.999968945980072
      ],
      "type": "VEC3"
    },
    {
      "bufferView": 1,
      "byteOffset": 1312,
      "componentType": 5126,
      "count": 122,
      "max": [
        0.8301571011543274,
        0.867267370223999
      ],
      "min": [
        0.07596975564956665,
        0.00043068951345048845
      ],
      "type": "VEC2"
    },
    {
      "bufferView": 0,
      "byteOffset": 1200,
      "componentType": 5125,
      "count": 126,
      "type": "SCALAR"
    },
    {
      "bufferView": 2,
      "byteOffset": 6864,
      "componentType": 5126,
      "count": 72,
      "max": [
        1.6294511556625366,
        1.3920663595199585,
        3.5387516021728516
      ],
      "min": [
        -1.36400306224823,
        -1.3233996629714966,
        -7.89231014251709
      ],
      "type": "VEC3"
    },
    {
      "bufferView": 2,
      "byteOffset": 7728,
      "componentType": 5126,
      "count": 72,
      "max": [
        0.9966709017753601,
        0.9991316199302673,
        0.9988234639167786
      ],
      "min": [
        -0.9995015859603882,
        -0.9991316199302673,
        -0.9950251579284668
      ],
      "type": "VEC3"
    },
    {
      "bufferView": 1,
      "byteOffset": 2288,
      "componentType": 5126,
      "count": 72,
      "max": [
        0.8326749205589294,
        0.8184881806373596
      ],
      "min": [
        0.07596975564956665,
        0.23478266596794128
      ],
      "type": "VEC2"
    },
    {
      "bufferView": 0,
      "byteOffset": 1704,
      "componentType": 5125,
      "count": 72,
      "type": "SCALAR"
    },
    {
      "bufferView": 2,
      "byteOffset": 8592,
      "componentType": 5126,
      "count": 23,
      "max": [
        2.1645874977111816,
        3.4721412658691406,
        0.17081183195114136
      ],
      "min": [
        -2.026350259780884,
        -2.3147597312927246,
        -0.32496070861816406
      ],
      "type": "VEC3"
    },
    {
      "bufferView": 2,
      "byteOffset": 8868,
      "componentType": 5126,
      "count": 23,
      "max": [
        0.9997016191482544,
        1.0,
        0.02442922443151474
      ],
      "min": [
        -0.9997016191482544,
        -1.0,
        -0.02443225495517254
      ],
      "type": "VEC3"
    },
    {
      "bufferView": 1,
      "byteOffset": 2864,
      "componentType": 5126,
      "count": 23,
      "max": [
        0.7691777348518372,
        0.8297572135925293
      ],
      "min": [
        0.3080254793167114,
        0.6337792873382568
      ],
      "type": "VEC2"
    },
    {
      "bufferView": 0,
      "byteOffset": 1992,
      "componentType": 5125,
      "count": 27,
      "type": "SCALAR"
    },
    {
      "bufferView": 2,
      "byteOffset": 9144,
      "componentType": 5126,
      "count": 6,
      "max": [
        5.398120880126953,
        7.58860969543457,
        -0.1465810090303421
      ],
      "min": [
        -3.2468862533569336,
        -6.431234836578369,
        -0.3578604757785797
      ],
      "type": "VEC3"
    },
    {
      "bufferView": 2,
      "byteOffset": 9216,
      "componentType": 5126,
      "count": 6,
      "max": [
        -0.024432122707366943,
        9.528548616799526e-08,
        0.9997015595436096
      ],
      "min": [
        -0.024432238191366196,
        -9.528459798957556e-08,
        0.9997015595436096
      ],
      "type": "VEC3"
    },
    {
      "bufferView": 1,
      "byteOffset": 3048,
      "componentType": 5126,
      "count": 6,
      "max": [
        0.7325136065483093,
        0.7754888534545898
      ],
      "min": [
        0.7221807241439819,
        0.6337792873382568
      ],
      "type": "VEC2"
    },
    {
      "bufferView": 0,
      "byteOffset": 2100,
      "componentType": 5125,
      "count": 6,
      "type": "SCALAR"
    }
  ],
  "asset": {
    "extras": {
      "author": "DatSketch (https://sketchfab.com/DatSketch)",
      "license": "CC-BY-4.0 (http://creativecommons.org/licenses/by/4.0/)",
      "source": "https://sketchfab.com/3d-models/office-monitor-workstation-monitor-6a7b0147890242418a49f6db26657ab4",
      "title": "Office Monitor / Workstation Monitor"
    },
    "generator": "Sketchfab-12.64.0",
    "version": "2.0"
  },
  "bufferViews": [
    {
      "buffer": 0,
      "byteLength": 2124,
      "name": "floatBufferViews",
      "target": 34963
    },
    {
      "buffer": 0,
      "byteLength": 3096,
      "byteOffset": 2124,
      "byteStride": 8,
      "name": "floatBufferViews",
      "target": 34962
    },
    {
      "buffer": 0,
      "byteLength": 9288,
      "byteOffset": 5220,
      "byteStride": 12,
      "name": "floatBufferViews",
      "target": 34962
    }
  ],
  "buffers": [
    {
      "byteLength": 14508,
      "uri": "scene.bin"
    }
  ],
  "materials": [
    {
      "doubleSided": true,
      "name": "material",
      "pbrMetallicRoughness": {
        "metallicFactor": 0.0,
        "roughnessFactor": 0.7763932022500211
      }
    },
    {
      "doubleSided": true,
      "name": "Material.001",
      "pbrMetallicRoughness": {
        "baseColorFactor": [
          0.038578049044150575,
          0.038578049044150575,
          0.038578049044150575,
          1.0
        ],
        "metallicFactor": 0.0,
        "roughnessFactor": 0.9860256295127628
      }
    },
    {
      "doubleSided": true,
      "name": "layar",
      "pbrMetallicRoughness": {
        "baseColorFactor": [
          0.0,
          0.0,
          0.0,
          1.0
        ],
        "metallicFactor": 0.0,
        "roughnessFactor": 0.4334695189870055
      }
    },
    {
      "doubleSided": true,
      "name": "Material.002",
      "pbrMetallicRoughness": {
        "baseColorFactor": [
          0.03661198052905689,
          0.03661198052905689,
          0.03661198052905689,
          1.0
        ],
        "metallicFactor": 0.0,
        "roughnessFactor": 0.9771393445352249
      }
    },
    {
      "doubleSided": true,
      "emissiveFactor": [
        0.0,
        0.40269850999277523,
        1.0
      ],
      "name": "Material.003",
      "pbrMetallicRoughness": {
        "baseColorFactor": [
          0.8,
          0.8,
          0.8,
          1.0
        ],
        "metallicFactor": 0.0,
        "roughnessFactor": 0.8040408205773457
      }
    }
  ],
  "meshes": [
    {
      "name": "SketchUp_material_0",
      "primitives": [
        {
          "attributes": {
            "NORMAL": 1,
            "POSITION": 0,
            "TEXCOORD_0": 2
          },
          "indices": 3,
          "material": 0,
          "mode": 4
        }
      ]
    },
    {
      "name": "group_0_Material.001_0",
      "primitives": [
        {
          "attributes": {
            "NORMAL": 5,
            "POSITION": 4,
            "TEXCOORD_0": 6
          },
          "indices": 7,
          "material": 1,
          "mode": 4
        }
      ]
    },
    {
      "name": "group_0.001_Material.001_0",
      "primitives": [
        {
          "attributes": {
            "NORMAL": 9,
            "POSITION": 8,
            "TEXCOORD_0": 10
          },
          "indices": 11,
          "material": 1,
          "mode": 4
        }
      ]
    },
    {
      "name": "group_0.002_layar_0",
      "primitives": [
        {
          "attributes": {
            "NORMAL": 13,
            "POSITION": 12,
            "TEXCOORD_0": 14
          },
          "indices": 15,
          "material": 2,
          "mode": 4
        }
      ]
    },
    {
      "name": "SketchUp.001_Material.002_0",
      "primitives": [
        {
          "attributes": {
            "NORMAL": 17,
            "POSITION": 16,
            "TEXCOORD_0": 18
          },
          "indices": 19,
          "material": 3,
          "mode": 4
        }
      ]
    },
    {
      "name": "SketchUp.003_Material.002_0",
      "primitives": [
        {
          "attributes": {
            "NORMAL": 21,
            "POSITION": 20,
            "TEXCOORD_0": 22
          },
          "indices": 23,
          "material": 3,
          "mode": 4
        }
      ]
    },
    {
      "name": "SketchUp.002_Material.003_0",
      "primitives": [
        {
          "attributes": {
            "NORMAL": 25,
            "POSITION": 24,
            "TEXCOORD_0": 26
          },
          "indices": 27,
          "material": 4,
          "mode": 4
        }
      ]
    },
    {
      "name": "SketchUp.004_Material.003_0",
      "primitives": [
        {
          "attributes": {
            "NORMAL": 29,
            "POSITION": 28,
            "TEXCOORD_0": 30
          },
          "indices": 31,
          "material": 4,
          "mode": 4
        }
      ]
    }
  ],
  "nodes": [
    {
      "children": [
        1
      ],
      "matrix": [
        1.0,
        0.0,
        0.0,
        0.0,
        0.0,
        2.220446049250313e-16,
        -1.0,
        0.0,
        0.0,
        1.0,
        2.220446049250313e-16,
        0.0,
        0.0,
        9.017046522785677e-07,
        2.002186532742573e-22,
        1.0
      ],
      "name": "Sketchfab_model"
    },
    {
      "children": [
        2
      ],
      "matrix": [
        1.0,
        0.0,
        0.0,
        0.0,
        0.0,
        0.0,
        1.0,
        0.0,
        0.0,
        -1.0,
        0.0,
        0.0,
        0.0,
        0.0,
        0.0,
        1.0
      ],
      "name": "monitor.fbx"
    },
    {
      "children": [
        3,
        11,
        13,
        15,
        17
      ],
      "name": "RootNode"
    },
    {
      "children": [
        4,
        5,
        7,
        9
      ],
      "matrix": [
        27.464080810546875,
        0.0,
        0.0,
        0.0,
        0.0,
        -4.474466704526457e-06,
        -27.464080810546513,
        0.0,
        0.0,
        27.464080810546513,
        -4.474466704526457e-06,
        0.0,
        2.8027400970458984,
        -38.913631439208984,
        -25.17950439453125,
        1.0
      ],
      "name": "SketchUp"
    },
    {
      "mesh": 0,
      "name": "SketchUp_material_0"
    },
    {
      "children": [
        6
      ],
      "matrix": [
        1.0000001192092896,
        0.0,
        0.0,
        0.0,
        0.0,
        1.0000001192092896,
        0.0,
        0.0,
        0.0,
        0.0,
        1.0000001192092896,
        0.0,
        2.721508026123047,
        0.30117267370224,
        10.789885520935059,
        1.0
      ],
      "name": "group_0"
    },
    {
      "mesh": 1,
      "name": "group_0_Material.001_0"
    },
    {
      "children": [
        8
      ],
      "matrix": [
        1.0000001192092896,
        0.0,
        0.0,
        0.0,
        0.0,
        1.0000001192092896,
        0.0,
        0.0,
        0.0,
        0.0,
        1.0000001192092896,
        0.0,
        2.4419519901275635,
        6.740020751953125,
        10.748844146728516,
        1.0
      ],
      "name": "group_0.001"
    },
    {
      "mesh": 2,
      "name": "group_0.001_Material.001_0"
    },
    {
      "children": [
        10
      ],
      "matrix": [
        1.0000001192092896,
        0.0,
        0.0,
        0.0,
        0.0,
        1.0000001192092896,
        0.0,
        0.0,
        0.0,
        0.0,
        1.0000001192092896,
        0.0,
        3.567230463027954,
        -0.0024871826171875,
        11.667716026306152,
        1.0
      ],
      "name": "group_0.002"
    },
    {
      "mesh": 3,
      "name": "group_0.002_layar_0"
    },
    {
      "children": [
        12
      ],
      "matrix": [
        27.464080810546875,
        0.0,
        0.0,
        0.0,
        0.0,
        -4.474466704526457e-06,
        -27.464080810546513,
        0.0,
        0.0,
        27.464080810546513,
        -4.474466704526457e-06,
        0.0,
        0.8780323266983032,
        -35.71590805053711,
        -9.286327362060547,
        1.0
      ],
      "name": "SketchUp.001"
    },
    {
      "mesh": 4,
      "name": "SketchUp.001_Material.002_0"
    },
    {
      "children": [
        14
      ],
      "matrix": [
        27.464080810546875,
        0.0,
        0.0,
        0.0,
        0.0,
        -4.474466704526457e-06,
        -27.464080810546513,
        0.0,
        0.0,
        27.464080810546513,
        -4.474466704526457e-06,
        0.0,
        3.453852891921997,
        183.43133544921875,
        -24.236530303955078,
        1.0
      ],
      "name": "SketchUp.003"
    },
    {
      "mesh": 5,
      "name": "SketchUp.003_Material.002_0"
    },
    {
      "children": [
        16
      ],
      "matrix": [
        27.464080810546875,
        0.0,
        0.0,
        0.0,
        0.0,
        -4.474466704526457e-06,
        -27.464080810546513,
        0.0,
        0.0,
        27.464080810546513,
        -4.474466704526457e-06,
        0.0,
        0.8780323266983032,
        -35.71590805053711,
        -9.286327362060547,
        1.0
      ],
      "name": "SketchUp.002"
    },
    {
      "mesh": 6,
      "name": "SketchUp.002_Material.003_0"
    },
    {
      "children": [
        18
      ],
      "matrix": [
        27.464080810546875,
        0.0,
        0.0,
        0.0,
        0.0,
        -4.474466704526457e-06,
        -27.464080810546513,
        0.0,
        0.0,
        27.464080810546513,
        -4.474466704526457e-06,
        0.0,
        0.8780323266983032,
        -35.71590805053711,
        -9.286327362060547,
        1.0
      ],
      "name": "SketchUp.004"
    },
    {
      "mesh": 7,
      "name": "SketchUp.004_Material.003_0"
    }
  ],
  "scene": 0,
  "scenes": [
    {
      "name": "Sketchfab_Scene",
      "nodes": [
        0
      ]
    }
  ]
}
