{
  "accessors": [
    {
      "bufferView": 2,
      "componentType": 5126,
      "count": 3325,
      "max": [
        4.5012712478637695,
        1.0,
        0.8238253593444824
      ],
      "min": [
        -1.0,
        -2.0,
        -0.17727643251419067
      ],
      "type": "VEC3"
    },
    {
      "bufferView": 2,
      "byteOffset": 39900,
      "componentType": 5126,
      "count": 3325,
      "max": [
        1.0,
        1.0,
        1.0
      ],
      "min": [
        -1.0,
        -1.0,
        -1.0
      ],
      "type": "VEC3"
    },
    {
      "bufferView": 1,
      "componentType": 5126,
      "count": 3325,
      "max": [
        0.9580443501472473,
        0.9883176684379578
      ],
      "min": [
        0.4388311207294464,
        0.5113013386726379
      ],
      "type": "VEC2"
    },
    {
      "bufferView": 0,
      "componentType": 5125,
      "count": 5898,
      "type": "SCALAR"
    }
  ],
  "asset": {
    "extras": {
      "author": "bronwenalexina (https://sketchfab.com/bronwenalexina)",
      "license": "CC-BY-4.0 (http://creativecommons.org/licenses/by/4.0/)",
      "source": "https://sketchfab.com/3d-models/turntables-b7bb537521bd4fa9be15926c24bb4656",
      "title": "Turntables"
    },
    "generator": "Sketchfab-12.65.0",
    "version": "2.0"
  },
  "bufferViews": [
    {
      "buffer": 0,
      "byteLength": 23592,
      "name": "floatBufferViews",
      "target": 34963
    },
    {
      "buffer": 0,
      "byteLength": 26600,
      "byteOffset": 23592,
      "byteStride": 8,
      "name": "floatBufferViews",
      "target": 34962
    },
    {
      "buffer": 0,
      "byteLength": 79800,
      "byteOffset": 50192,
      "byteStride": 12,
      "name": "floatBufferViews",
      "target": 34962
    }
  ],
  "buffers": [
    {
      "byteLength": 129992,
      "uri": "scene.bin"
    }
  ],
  "extensionsUsed": [
    "KHR_materials_unlit"
  ],
  "images": [
    {
      "uri": "textures/Material.001_baseColor.png"
    }
  ],
  "materials": [
    {
      "doubleSided": true,
      "extensions": {
        "KHR_materials_unlit": {}
      },
      "name": "Material.001",
      "pbrMetallicRoughness": {
        "baseColorTexture": {
          "index": 0
        },
        "metallicFactor": 0.0
      }
    }
  ],
  "meshes": [
    {
      "name": "Cube.240_Material.001_0",
      "primitives": [
        {
          "attributes": {
            "NORMAL": 1,
            "POSITION": 0,
            "TEXCOORD_0": 2
          },
          "indices": 3,
          "material": 0,
          "mode": 4
        }
      ]
    }
  ],
  "nodes": [
    {
      "children": [
        1
      ],
      "matrix": [
        0.01826474815607071,
        -0.04191308468580268,
        0.9989542961120605,
        0.0,
        0.9669077396392822,
        0.25503093004226685,
        -0.0069784889928996,
        0.0,
        -0.2544717490673065,
        0.9660241007804871,
        0.04518416151404402,
        0.0,
        -3649.829833984375,
        -424.2437744140628,
        1231.3275146484375,
        1.0
      ],
      "name": "Sketchfab_model"
    },
    {
      "children": [
        2
      ],
      "matrix": [
        1.0,
        0.0,
        0.0,
        0.0,
        0.0,
        0.0,
        1.0,
        0.0,
        0.0,
        -1.0,
        0.0,
        0.0,
        0.0,
        0.0,
        0.0,
        1.0
      ],
      "name": "6434f75eda1845d2b1a7f469f373351b.fbx"
    },
    {
      "children": [
        3
      ],
      "name": "RootNode"
    },
    {
      "children": [
        4
      ],
      "matrix": [
        100.0,
        0.0,
        0.0,
        0.0,
        -0.0,
        -1.629206793918314e-05,
        -99.99999999999868,
        0.0,
        0.0,
        99.99999999999868,
        -1.629206793918314e-05,
        0.0,
        -2714.384033203125,
        350.00341796875,
        -1347.1141357421875,
        1.0
      ],
      "name": "Cube.240"
    },
    {
      "mesh": 0,
      "name": "Cube.240_Material.001_0"
    }
  ],
  "samplers": [
    {
      "magFilter": 9729,
      "minFilter": 9987,
      "wrapS": 10497,
      "wrapT": 10497
    }
  ],
  "scene": 0,
  "scenes": [
    {
      "name": "Sketchfab_Scene",
      "nodes": [
        0
      ]
    }
  ],
  "textures": [
    {
      "sampler": 0,
      "source": 0
    }
  ]
}
